<?xml version="1.0" encoding="UTF-8"?>
<svg version="1.1" xmlns="http://www.w3.org/2000/svg" width="1052" height="259">
<path d="M0 0 C0.66902344 0.433125 1.33804688 0.86625 2.02734375 1.3125 C5.88023938 3.87547653 8.73280972 6.76851199 11.64453125 10.359375 C13.09776388 12.17847969 13.09776388 12.17847969 15.375 14.3125 C17 16 17 16 17 18 C17.66 18 18.32 18 19 18 C19.99 20.475 19.99 20.475 21 23 C21.66 23 22.32 23 23 23 C23.33 24.65 23.66 26.3 24 28 C24.66 28 25.32 28 26 28 C28.58995982 33.44285972 30.67512147 38.83043728 32.2890625 44.640625 C32.96312304 47.03506311 32.96312304 47.03506311 34.015625 49.37890625 C41.41631085 69.0847007 37.59839754 95.17801524 30 114 C29.34 114 28.68 114 28 114 C27.9175 114.845625 27.835 115.69125 27.75 116.5625 C26.84266147 120.72113491 25.23458727 123.39582699 23 127 C22.34 127 21.68 127 21 127 C20.7525 127.70125 20.505 128.4025 20.25 129.125 C18.82819762 132.39514548 17.12753712 135.141122 15 138 C14.34 138 13.68 138 13 138 C12.72220703 138.5887793 12.44441406 139.17755859 12.15820312 139.78417969 C10.34581635 143.25155371 7.91246873 146.18298549 5.5 149.25 C5.00113281 149.8996875 4.50226563 150.549375 3.98828125 151.21875 C2.70815807 152.85236564 1.35894401 154.43134241 0 156 C-0.66 156 -1.32 156 -2 156 C-2.66 157.65 -3.32 159.3 -4 161 C-4.66 161 -5.32 161 -6 161 C-6.268125 161.763125 -6.53625 162.52625 -6.8125 163.3125 C-8.00439913 166.00995593 -8.88254149 167.03939027 -11 169 C-11.86089863 170.05705274 -12.71452638 171.12005085 -13.5625 172.1875 C-14.366875 173.115625 -15.17125 174.04375 -16 175 C-16.66 175 -17.32 175 -18 175 C-18.103125 175.598125 -18.20625 176.19625 -18.3125 176.8125 C-19.11828726 179.37636856 -20.09239127 180.13665134 -22 182 C-23.22544164 183.48605593 -24.43194726 184.98781793 -25.625 186.5 C-29.37409731 191.22621879 -33.18433856 195.89815265 -37.01953125 200.5546875 C-38.27469969 202.10446156 -39.48717592 203.69065035 -40.63671875 205.3203125 C-41.08660156 205.87460938 -41.53648438 206.42890625 -42 207 C-42.66 207 -43.32 207 -44 207 C-44.66 208.65 -45.32 210.3 -46 212 C-46.66 212 -47.32 212 -48 212 C-48.33 213.32 -48.66 214.64 -49 216 C-51.6875 216.3125 -51.6875 216.3125 -55 216 C-59.36547074 212.5076234 -62.97488276 207.70920312 -66 203 C-66 202.34 -66 201.68 -66 201 C-66.99 200.67 -67.98 200.34 -69 200 C-73 195.54285714 -73 195.54285714 -73 193 C-73.66 193 -74.32 193 -75 193 C-75.268125 192.195625 -75.53625 191.39125 -75.8125 190.5625 C-76.204375 189.716875 -76.59625 188.87125 -77 188 C-77.99 187.67 -78.98 187.34 -80 187 C-80.33333333 185.66666667 -80.66666667 184.33333333 -81 183 C-81.99 182.67 -82.98 182.34 -84 182 C-84.33333333 180.66666667 -84.66666667 179.33333333 -85 178 C-85.99 177.67 -86.98 177.34 -88 177 C-88 176.34 -88 175.68 -88 175 C-88.99 174.67 -89.98 174.34 -91 174 C-91.33333333 172.66666667 -91.66666667 171.33333333 -92 170 C-92.99 169.67 -93.98 169.34 -95 169 C-96.28125 167.4765625 -96.28125 167.4765625 -97.5 165.625 C-99.15510966 163.13172584 -100.85177106 161.08161719 -103 159 C-108 153.46478873 -108 153.46478873 -108 151 C-108.66 151 -109.32 151 -110 151 C-111.1484375 149.609375 -111.1484375 149.609375 -112.375 147.75 C-113.85491207 145.58438087 -115.19815076 143.80184924 -117.0625 141.9375 C-119.46491144 139.53508856 -121.13272762 136.83102587 -123 134 C-123.556875 133.46375 -124.11375 132.9275 -124.6875 132.375 C-126.30693062 130.67845363 -126.6068087 129.28050956 -127 127 C-127.66 127 -128.32 127 -129 127 C-129.391875 126.195625 -129.78375 125.39125 -130.1875 124.5625 C-131.17000507 122.63136935 -132.17303347 120.7079068 -133.27734375 118.84375 C-136.07080336 114.11511112 -137.64893285 110.50005203 -138 105 C-138.66 105 -139.32 105 -140 105 C-141.26305335 99.92523206 -142.27036084 95.27203646 -142 90 C-142.66 90 -143.32 90 -144 90 C-144.05823729 85.4583875 -144.09367675 80.9168716 -144.125 76.375 C-144.15013672 74.44720703 -144.15013672 74.44720703 -144.17578125 72.48046875 C-144.18222656 71.23652344 -144.18867188 69.99257812 -144.1953125 68.7109375 C-144.21102295 66.99849854 -144.21102295 66.99849854 -144.22705078 65.25146484 C-143.98970277 61.85253924 -143.18421399 59.18056609 -142 56 C-141.70175527 54.44249975 -141.42963173 52.87970425 -141.1875 51.3125 C-140.2475499 46.33452426 -138.42044764 42.08732638 -136.21875 37.54296875 C-135.03084762 35.06436475 -133.99346422 32.56184986 -133 30 C-132.34 30 -131.68 30 -131 30 C-130.34 27.69 -129.68 25.38 -129 23 C-128.34 23 -127.68 23 -127 23 C-126.34 21.35 -125.68 19.7 -125 18 C-124.34 18 -123.68 18 -123 18 C-122.7525 17.443125 -122.505 16.88625 -122.25 16.3125 C-114.25162467 1.51550565 -94.51275731 -8.23677263 -79.171875 -13.2109375 C-51.71438982 -20.04149416 -23.42116054 -16.24067633 0 0 Z " fill="#FAFCFE" transform="translate(168,28)"/>
<path d="M0 0 C0.66902344 0.433125 1.33804688 0.86625 2.02734375 1.3125 C5.88023938 3.87547653 8.73280972 6.76851199 11.64453125 10.359375 C13.09776388 12.17847969 13.09776388 12.17847969 15.375 14.3125 C17 16 17 16 17 18 C17.66 18 18.32 18 19 18 C19.99 20.475 19.99 20.475 21 23 C21.66 23 22.32 23 23 23 C23.33 24.65 23.66 26.3 24 28 C24.66 28 25.32 28 26 28 C28.58995982 33.44285972 30.67512147 38.83043728 32.2890625 44.640625 C32.96312304 47.03506311 32.96312304 47.03506311 34.015625 49.37890625 C41.41631085 69.0847007 37.59839754 95.17801524 30 114 C29.34 114 28.68 114 28 114 C27.9175 114.845625 27.835 115.69125 27.75 116.5625 C26.84266147 120.72113491 25.23458727 123.39582699 23 127 C22.34 127 21.68 127 21 127 C20.7525 127.70125 20.505 128.4025 20.25 129.125 C18.82819762 132.39514548 17.12753712 135.141122 15 138 C14.34 138 13.68 138 13 138 C12.72220703 138.5887793 12.44441406 139.17755859 12.15820312 139.78417969 C10.34581635 143.25155371 7.91246873 146.18298549 5.5 149.25 C5.00113281 149.8996875 4.50226563 150.549375 3.98828125 151.21875 C2.70815807 152.85236564 1.35894401 154.43134241 0 156 C-0.66 156 -1.32 156 -2 156 C-2.66 157.65 -3.32 159.3 -4 161 C-4.66 161 -5.32 161 -6 161 C-6.268125 161.763125 -6.53625 162.52625 -6.8125 163.3125 C-8.00439913 166.00995593 -8.88254149 167.03939027 -11 169 C-11.86089863 170.05705274 -12.71452638 171.12005085 -13.5625 172.1875 C-14.366875 173.115625 -15.17125 174.04375 -16 175 C-16.66 175 -17.32 175 -18 175 C-18.103125 175.598125 -18.20625 176.19625 -18.3125 176.8125 C-19.11828726 179.37636856 -20.09239127 180.13665134 -22 182 C-23.22544164 183.48605593 -24.43194726 184.98781793 -25.625 186.5 C-29.37409731 191.22621879 -33.18433856 195.89815265 -37.01953125 200.5546875 C-38.27469969 202.10446156 -39.48717592 203.69065035 -40.63671875 205.3203125 C-41.08660156 205.87460938 -41.53648438 206.42890625 -42 207 C-42.66 207 -43.32 207 -44 207 C-44.66 208.65 -45.32 210.3 -46 212 C-46.66 212 -47.32 212 -48 212 C-48.33 213.32 -48.66 214.64 -49 216 C-51.6875 216.3125 -51.6875 216.3125 -55 216 C-59.36547074 212.5076234 -62.97488276 207.70920312 -66 203 C-66 202.34 -66 201.68 -66 201 C-66.99 200.67 -67.98 200.34 -69 200 C-73 195.54285714 -73 195.54285714 -73 193 C-73.66 193 -74.32 193 -75 193 C-75.268125 192.195625 -75.53625 191.39125 -75.8125 190.5625 C-76.204375 189.716875 -76.59625 188.87125 -77 188 C-77.99 187.67 -78.98 187.34 -80 187 C-80.33333333 185.66666667 -80.66666667 184.33333333 -81 183 C-81.99 182.67 -82.98 182.34 -84 182 C-84.33333333 180.66666667 -84.66666667 179.33333333 -85 178 C-85.99 177.67 -86.98 177.34 -88 177 C-88 176.34 -88 175.68 -88 175 C-88.99 174.67 -89.98 174.34 -91 174 C-91.33333333 172.66666667 -91.66666667 171.33333333 -92 170 C-92.99 169.67 -93.98 169.34 -95 169 C-96.28125 167.4765625 -96.28125 167.4765625 -97.5 165.625 C-99.15510966 163.13172584 -100.85177106 161.08161719 -103 159 C-108 153.46478873 -108 153.46478873 -108 151 C-108.66 151 -109.32 151 -110 151 C-111.1484375 149.609375 -111.1484375 149.609375 -112.375 147.75 C-113.85491207 145.58438087 -115.19815076 143.80184924 -117.0625 141.9375 C-119.46491144 139.53508856 -121.13272762 136.83102587 -123 134 C-123.556875 133.46375 -124.11375 132.9275 -124.6875 132.375 C-126.30693062 130.67845363 -126.6068087 129.28050956 -127 127 C-127.66 127 -128.32 127 -129 127 C-129.391875 126.195625 -129.78375 125.39125 -130.1875 124.5625 C-131.17000507 122.63136935 -132.17303347 120.7079068 -133.27734375 118.84375 C-136.07080336 114.11511112 -137.64893285 110.50005203 -138 105 C-138.66 105 -139.32 105 -140 105 C-141.26305335 99.92523206 -142.27036084 95.27203646 -142 90 C-142.66 90 -143.32 90 -144 90 C-144.05823729 85.4583875 -144.09367675 80.9168716 -144.125 76.375 C-144.15013672 74.44720703 -144.15013672 74.44720703 -144.17578125 72.48046875 C-144.18222656 71.23652344 -144.18867188 69.99257812 -144.1953125 68.7109375 C-144.21102295 66.99849854 -144.21102295 66.99849854 -144.22705078 65.25146484 C-143.98970277 61.85253924 -143.18421399 59.18056609 -142 56 C-141.70175527 54.44249975 -141.42963173 52.87970425 -141.1875 51.3125 C-140.2475499 46.33452426 -138.42044764 42.08732638 -136.21875 37.54296875 C-135.03084762 35.06436475 -133.99346422 32.56184986 -133 30 C-132.34 30 -131.68 30 -131 30 C-130.34 27.69 -129.68 25.38 -129 23 C-128.34 23 -127.68 23 -127 23 C-126.34 21.35 -125.68 19.7 -125 18 C-124.34 18 -123.68 18 -123 18 C-122.7525 17.443125 -122.505 16.88625 -122.25 16.3125 C-114.25162467 1.51550565 -94.51275731 -8.23677263 -79.171875 -13.2109375 C-51.71438982 -20.04149416 -23.42116054 -16.24067633 0 0 Z M-107.83203125 32.171875 C-120.00205871 48.04773064 -124.22886231 65.28534881 -123 85 C-120.39652277 102.95784293 -110.86738894 118.48466211 -97 130 C-91.73719443 133.90639739 -86.07537688 137.84948172 -79.92626953 140.14990234 C-77 142 -77 142 -75.69213867 145.35400391 C-75.40788421 146.72301097 -75.15128305 148.09795981 -74.91796875 149.4765625 C-74.70120232 150.56534195 -74.70120232 150.56534195 -74.48005676 151.67611694 C-74.02470608 153.9884619 -73.60525231 156.30559687 -73.1875 158.625 C-72.74432996 160.94954324 -72.29402544 163.2725905 -71.84138489 165.5953064 C-71.56262297 167.03959632 -71.29085669 168.4852569 -71.0266571 169.93228149 C-70.63665201 173.25042544 -70.63665201 173.25042544 -69 176 C-66.55169574 176.08843793 -64.13179401 176.11528752 -61.68359375 176.09765625 C-60.95253922 176.0962413 -60.22148468 176.09482635 -59.46827698 176.09336853 C-57.12464368 176.08775408 -54.78110461 176.07519922 -52.4375 176.0625 C-50.85221492 176.05748686 -49.26692834 176.05292363 -47.68164062 176.04882812 C-43.7877239 176.03777997 -39.89387795 176.02050572 -36 176 C-34.66075041 171.55876069 -33.65351102 167.29189398 -32.984375 162.69140625 C-29.65972024 142.63722297 -29.65972024 142.63722297 -24.9140625 138.83984375 C-21.375 137 -21.375 137 -17.671875 135.52734375 C-13.49096981 133.7882651 -10.85021993 131.66209572 -7.625 128.5625 C-7.13153076 128.08852783 -6.63806152 127.61455566 -6.12963867 127.1262207 C-4.73894943 125.7651156 -3.36898456 124.38293345 -2 123 C-1.24847656 122.27039063 -0.49695313 121.54078125 0.27734375 120.7890625 C12.27286612 108.40213153 17.72865624 90.51054312 17.53881836 73.50341797 C16.67649762 54.55829627 8.1639748 37.36333907 -5.48193359 24.35644531 C-20.75432722 10.71002863 -38.59322604 4.79898286 -58.83398438 5.84472656 C-78.32911307 7.24225833 -95.21329738 17.61007946 -107.83203125 32.171875 Z " fill="#0D89FD" transform="translate(168,28)"/>
<path d="M0 0 C1.01964844 -0.01224609 2.03929687 -0.02449219 3.08984375 -0.03710938 C4.55744141 -0.04000977 4.55744141 -0.04000977 6.0546875 -0.04296875 C6.95429199 -0.04707764 7.85389648 -0.05118652 8.78076172 -0.05541992 C11.125 0.1875 11.125 0.1875 14.125 2.1875 C15.81867076 8.66329998 16.43585091 15.50420553 16.125 22.1875 C16.785 22.1875 17.445 22.1875 18.125 22.1875 C20.06678617 30.35401916 21.81788447 38.53126826 23.37890625 46.77734375 C24.08849699 50.02065639 25.07259892 53.04297628 26.125 56.1875 C26.67713367 58.95200261 27.12024007 61.72003797 27.5625 64.50390625 C28.0448616 67.19892973 28.0448616 67.19892973 29.125 69.66015625 C30.23823943 72.47369498 30.68991981 75.0713237 31.125 78.0625 C31.82521543 82.572549 32.85955081 86.80060948 34.125 91.1875 C34.54615724 93.85167448 34.84247064 96.50347105 35.125 99.1875 C35.455 99.1875 35.785 99.1875 36.125 99.1875 C36.785 95.5575 37.445 91.9275 38.125 88.1875 C38.785 88.1875 39.445 88.1875 40.125 88.1875 C40.08375 86.90875 40.0425 85.63 40 84.3125 C39.98342217 79.09877144 40.94188642 74.24742328 42.125 69.1875 C42.785 69.1875 43.445 69.1875 44.125 69.1875 C44.21587891 67.92292969 44.21587891 67.92292969 44.30859375 66.6328125 C44.39238281 65.53710938 44.47617187 64.44140625 44.5625 63.3125 C44.64371094 62.22195312 44.72492188 61.13140625 44.80859375 60.0078125 C45.125 57.1875 45.125 57.1875 46.125 55.1875 C46.785 55.1875 47.445 55.1875 48.125 55.1875 C48.08375 54.07375 48.0425 52.96 48 51.8125 C48 45.20456283 49.17493836 39.08762329 52.125 33.1875 C52.51249213 30.86254723 52.85482839 28.52898732 53.125 26.1875 C53.785 26.1875 54.445 26.1875 55.125 26.1875 C55.18558594 25.35605469 55.24617188 24.52460937 55.30859375 23.66796875 C55.43427734 22.03794922 55.43427734 22.03794922 55.5625 20.375 C55.68431641 18.75658203 55.68431641 18.75658203 55.80859375 17.10546875 C56.125 14.1875 56.125 14.1875 57.125 11.1875 C57.785 11.1875 58.445 11.1875 59.125 11.1875 C59.07279297 10.24777344 59.07279297 10.24777344 59.01953125 9.2890625 C58.99246094 8.47179687 58.96539062 7.65453125 58.9375 6.8125 C58.88529297 5.59433594 58.88529297 5.59433594 58.83203125 4.3515625 C58.92871094 3.63742188 59.02539062 2.92328125 59.125 2.1875 C62.45111739 -0.0299116 63.50571543 -0.05998716 67.37890625 -0.04296875 C68.39791016 -0.04103516 69.41691406 -0.03910156 70.46679688 -0.03710938 C71.52962891 -0.02486328 72.59246094 -0.01261719 73.6875 0 C74.75419922 0.00064453 75.82089844 0.00128906 76.91992188 0.00195312 C84.84424047 0.04712024 84.84424047 0.04712024 87.125 1.1875 C87.6875 3.26171875 87.6875 3.26171875 88.125 5.875 C88.64807093 8.76414958 89.19460179 11.39630538 90.125 14.1875 C91.02808416 16.89675247 91.59716927 19.4500229 92.125 22.25 C92.62828536 24.89618007 93.12302112 27.1825528 94.125 29.6875 C95.10739738 32.14349346 95.58090998 34.34248601 96.0625 36.9375 C96.7039167 40.39088752 97.54865004 43.57551771 98.75 46.875 C100.15371112 50.8392495 100.39207436 54.00333495 100.125 58.1875 C100.785 58.1875 101.445 58.1875 102.125 58.1875 C104.13275382 65.29295502 105.89810157 72.4194158 107.4765625 79.6328125 C107.87236788 82.10533793 107.87236788 82.10533793 109.125 83.1875 C109.52493686 85.87612664 109.87634543 88.55102217 110.1875 91.25 C110.27837891 92.00861328 110.36925781 92.76722656 110.46289062 93.54882812 C110.6874374 95.4279301 110.90670978 97.30766095 111.125 99.1875 C111.785 99.1875 112.445 99.1875 113.125 99.1875 C113.19847656 98.26130859 113.19847656 98.26130859 113.2734375 97.31640625 C113.71573178 92.30627971 114.4145638 87.5260373 115.58203125 82.63671875 C116.64090509 77.86035975 117.35674751 73.01768319 118.125 68.1875 C118.785 68.1875 119.445 68.1875 120.125 68.1875 C120.19847656 66.83205078 120.19847656 66.83205078 120.2734375 65.44921875 C120.34820312 64.26972656 120.42296875 63.09023437 120.5 61.875 C120.56960938 60.70324219 120.63921875 59.53148437 120.7109375 58.32421875 C121.125 55.1875 121.125 55.1875 123.125 52.1875 C123.63642875 50.134306 123.63642875 50.134306 123.90625 47.87890625 C124.02613281 47.04939453 124.14601563 46.21988281 124.26953125 45.36523438 C124.44548828 44.07069336 124.44548828 44.07069336 124.625 42.75 C124.8581889 41.04208349 125.09756455 39.33499786 125.34375 37.62890625 C125.4974707 36.49497437 125.4974707 36.49497437 125.65429688 35.33813477 C126.15883015 33.0329306 127.03775943 31.27175816 128.125 29.1875 C128.5329272 27.30250306 128.88487762 25.40474086 129.1875 23.5 C130.02247634 18.29002366 130.02247634 18.29002366 131.125 17.1875 C131.78081941 13.76974401 132.37392093 10.34890762 132.93164062 6.9140625 C133.26624426 4.99312557 133.68944752 3.08809263 134.125 1.1875 C136.57775141 -0.0388757 138.1755781 0.07334686 140.9140625 0.08984375 C141.85507812 0.09306641 142.79609375 0.09628906 143.765625 0.09960938 C144.75046875 0.10798828 145.7353125 0.11636719 146.75 0.125 C147.74257813 0.12951172 148.73515625 0.13402344 149.7578125 0.13867188 C152.2136016 0.15047855 154.66927104 0.166946 157.125 0.1875 C157.19285601 4.17646383 157.18045656 7.86355454 156.25 11.75 C156.00636719 12.80380859 156.00636719 12.80380859 155.7578125 13.87890625 C155.3061995 15.52645738 154.79239546 17.15747448 154.23828125 18.7734375 C152.6817911 23.54667397 151.44492597 28.39065454 150.1875 33.25 C149.78772949 34.78611938 149.78772949 34.78611938 149.37988281 36.35327148 C147.72886218 42.73556758 146.15982486 49.12270048 144.765625 55.56640625 C144.04757901 58.50426517 143.08451653 61.32037324 142.125 64.1875 C141.76640128 65.68166133 141.43054613 67.18159407 141.125 68.6875 C140.57717855 71.25969291 139.97492276 73.62835188 139.125 76.125 C137.72817666 80.40277148 136.94597378 84.76821563 136.125 89.1875 C135.465 89.1875 134.805 89.1875 134.125 89.1875 C134.05152344 90.41726562 134.05152344 90.41726562 133.9765625 91.671875 C133.90179688 92.74953125 133.82703125 93.8271875 133.75 94.9375 C133.68039062 96.00484375 133.61078125 97.0721875 133.5390625 98.171875 C133.125 101.1875 133.125 101.1875 132.18359375 103.06640625 C130.56044029 106.31870267 130.15947357 109.82158591 129.5625 113.375 C128.25118671 121.06131329 128.25118671 121.06131329 127.125 122.1875 C125.07617803 122.28746094 123.02391431 122.31830946 120.97265625 122.3203125 C119.72162109 122.32160156 118.47058594 122.32289063 117.18164062 122.32421875 C115.86357422 122.32035156 114.54550781 122.31648438 113.1875 122.3125 C111.21620117 122.31830078 111.21620117 122.31830078 109.20507812 122.32421875 C107.95275391 122.32292969 106.70042969 122.32164062 105.41015625 122.3203125 C104.25394775 122.31918457 103.09773926 122.31805664 101.90649414 122.31689453 C99.125 122.1875 99.125 122.1875 97.125 121.1875 C97.125 118.5475 97.125 115.9075 97.125 113.1875 C96.465 113.1875 95.805 113.1875 95.125 113.1875 C93.70273885 110.3429777 93.74738263 107.52337776 93.50390625 104.37890625 C93.2282176 101.90376355 93.2282176 101.90376355 91.125 99.1875 C90.7109375 96.70703125 90.7109375 96.70703125 90.5 94 C90.38785156 92.64841797 90.38785156 92.64841797 90.2734375 91.26953125 C90.22445312 90.58246094 90.17546875 89.89539063 90.125 89.1875 C89.465 89.1875 88.805 89.1875 88.125 89.1875 C87.93164062 87.92292969 87.73828125 86.65835938 87.5390625 85.35546875 C87.27642921 83.69525115 87.01338705 82.03509819 86.75 80.375 C86.56050781 79.12493164 86.56050781 79.12493164 86.3671875 77.84960938 C86.23828125 77.04716797 86.109375 76.24472656 85.9765625 75.41796875 C85.86135254 74.67957764 85.74614258 73.94118652 85.62744141 73.18041992 C85.16810634 70.88982389 85.16810634 70.88982389 83.125 68.1875 C82.7109375 65.48828125 82.7109375 65.48828125 82.5 62.5 C82.38785156 61.00919922 82.38785156 61.00919922 82.2734375 59.48828125 C82.19996094 58.34939453 82.19996094 58.34939453 82.125 57.1875 C81.465 57.1875 80.805 57.1875 80.125 57.1875 C79.83496094 55.41632813 79.83496094 55.41632813 79.5390625 53.609375 C79.27637724 52.05202669 79.01333782 50.49473809 78.75 48.9375 C78.62367188 48.16019531 78.49734375 47.38289063 78.3671875 46.58203125 C77.71072011 42.74169704 76.99496505 39.63672124 75.125 36.1875 C74.78125 34.08203125 74.78125 34.08203125 74.625 32 C74.46 30.741875 74.295 29.48375 74.125 28.1875 C73.465 27.8575 72.805 27.5275 72.125 27.1875 C72.05152344 28.25677734 72.05152344 28.25677734 71.9765625 29.34765625 C71.54358489 34.8942488 70.8023717 39.85937812 69.125 45.1875 C68.5864584 47.57581492 68.08170442 49.96885862 67.58984375 52.3671875 C67.125 54.1875 67.125 54.1875 66.125 55.1875 C65.63002678 57.47153307 65.1798544 59.76532113 64.75 62.0625 C63.29626877 69.61560141 61.54138794 77.02165312 59.0625 84.3125 C58.02268501 87.50126596 57.32415548 90.69145867 56.625 93.96875 C56.19618429 95.8716197 55.66985703 97.75205397 55.125 99.625 C54.12434975 103.1898165 53.42131597 106.72316579 52.78515625 110.3671875 C51.84119484 114.39996938 50.47845835 118.27608546 49.125 122.1875 C45.43751691 122.21675502 41.75006408 122.23438418 38.0625 122.25 C37.02416016 122.25837891 35.98582031 122.26675781 34.91601562 122.27539062 C29.53776931 122.29246442 24.42166789 122.14165152 19.125 121.1875 C18.78723316 119.4383503 18.45496329 117.68813855 18.125 115.9375 C17.939375 114.96296875 17.75375 113.9884375 17.5625 112.984375 C17.125 110.1875 17.125 110.1875 17.125 106.1875 C16.465 106.1875 15.805 106.1875 15.125 106.1875 C14.93164062 105.07890625 14.73828125 103.9703125 14.5390625 102.828125 C14.27636511 101.36452524 14.01332633 99.90098673 13.75 98.4375 C13.62367188 97.70789063 13.49734375 96.97828125 13.3671875 96.2265625 C12.69906703 92.55189992 11.90864941 89.46252013 10.125 86.1875 C9.96 85.011875 9.795 83.83625 9.625 82.625 C9.35964413 79.07454437 9.35964413 79.07454437 7.125 76.1875 C6.7109375 73.70703125 6.7109375 73.70703125 6.5 71 C6.42523438 70.09894531 6.35046875 69.19789063 6.2734375 68.26953125 C6.22445312 67.58246094 6.17546875 66.89539063 6.125 66.1875 C5.465 66.1875 4.805 66.1875 4.125 66.1875 C3.93164062 65.00671875 3.73828125 63.8259375 3.5390625 62.609375 C3.27637724 61.05202669 3.01333782 59.49473809 2.75 57.9375 C2.62367188 57.16019531 2.49734375 56.38289063 2.3671875 55.58203125 C1.70833801 51.72776172 0.95474116 48.66400821 -0.875 45.1875 C-1.2890625 42.609375 -1.2890625 42.609375 -1.5 39.9375 C-1.57476562 39.04546875 -1.64953125 38.1534375 -1.7265625 37.234375 C-1.77554688 36.55890625 -1.82453125 35.8834375 -1.875 35.1875 C-2.535 35.1875 -3.195 35.1875 -3.875 35.1875 C-4.06835938 34.05570313 -4.26171875 32.92390625 -4.4609375 31.7578125 C-4.72354286 30.27596798 -4.98658648 28.79420108 -5.25 27.3125 C-5.43949219 26.19294922 -5.43949219 26.19294922 -5.6328125 25.05078125 C-6.32768694 20.67759468 -6.32768694 20.67759468 -8.875 17.1875 C-9.47265625 15.015625 -9.47265625 15.015625 -9.9375 12.4375 C-10.18113281 11.10138672 -10.18113281 11.10138672 -10.4296875 9.73828125 C-10.57664063 8.89652344 -10.72359375 8.05476563 -10.875 7.1875 C-11.101875 6.011875 -11.32875 4.83625 -11.5625 3.625 C-11.665625 2.820625 -11.76875 2.01625 -11.875 1.1875 C-9.46387261 -1.22362739 -3.23934528 0.00203221 0 0 Z " fill="#1A191A" transform="translate(233.875,66.8125)"/>
<path d="M0 0 C1.53333984 -0.00193359 1.53333984 -0.00193359 3.09765625 -0.00390625 C4.16886719 -0.00003906 5.24007812 0.00382812 6.34375 0.0078125 C7.95056641 0.00201172 7.95056641 0.00201172 9.58984375 -0.00390625 C11.12318359 -0.00197266 11.12318359 -0.00197266 12.6875 0 C13.62787109 0.00112793 14.56824219 0.00225586 15.53710938 0.00341797 C17.84375 0.1328125 17.84375 0.1328125 19.84375 1.1328125 C20.1875 3.49609375 20.1875 3.49609375 20.34375 6.4453125 C20.55051739 10.31703179 21.11996863 12.71136766 22.84375 16.1328125 C23.23653187 18.26856394 23.56490347 20.41672098 23.84375 22.5703125 C24.43896914 27.18754902 24.43896914 27.18754902 25.8671875 31.5859375 C27.13549875 34.89369325 27.27085695 37.91621986 27.46875 41.4453125 C27.54351563 42.69957031 27.61828125 43.95382813 27.6953125 45.24609375 C27.74429688 46.19871094 27.79328125 47.15132812 27.84375 48.1328125 C28.50375 48.1328125 29.16375 48.1328125 29.84375 48.1328125 C29.96492187 48.94105469 30.08609375 49.74929687 30.2109375 50.58203125 C30.46230469 52.18498047 30.46230469 52.18498047 30.71875 53.8203125 C30.96238281 55.40392578 30.96238281 55.40392578 31.2109375 57.01953125 C31.73136982 60.07715421 31.73136982 60.07715421 32.8515625 62.59375 C34.08238816 65.74350071 34.43592391 68.71667114 34.84375 72.0703125 C35.40804972 76.70059325 36.35677643 80.72376295 37.84375 85.1328125 C38.26509754 87.41641215 38.64034899 89.70900544 38.96875 92.0078125 C39.22011719 93.73644531 39.22011719 93.73644531 39.4765625 95.5 C39.59773437 96.36882812 39.71890625 97.23765625 39.84375 98.1328125 C40.50375 96.4828125 41.16375 94.8328125 41.84375 93.1328125 C42.50375 93.1328125 43.16375 93.1328125 43.84375 93.1328125 C43.8025 92.0190625 43.76125 90.9053125 43.71875 89.7578125 C43.70074278 84.73379914 44.72416764 80.0109928 45.84375 75.1328125 C46.50375 75.1328125 47.16375 75.1328125 47.84375 75.1328125 C47.89273438 74.14539063 47.94171875 73.15796875 47.9921875 72.140625 C48.06695313 70.85929687 48.14171875 69.57796875 48.21875 68.2578125 C48.28835938 66.98164063 48.35796875 65.70546875 48.4296875 64.390625 C48.84375 61.1328125 48.84375 61.1328125 50.84375 59.1328125 C51.42422655 56.35523221 51.91783132 53.62154689 52.34375 50.8203125 C53.0924621 45.97013903 53.90726245 41.67193933 55.84375 37.1328125 C56.26034135 35.3712997 56.63660118 33.59968117 56.96875 31.8203125 C57.13632812 30.93730469 57.30390625 30.05429688 57.4765625 29.14453125 C57.65832031 28.14873047 57.65832031 28.14873047 57.84375 27.1328125 C58.50375 27.1328125 59.16375 27.1328125 59.84375 27.1328125 C59.79476562 26.00746094 59.74578125 24.88210937 59.6953125 23.72265625 C59.69748813 18.78722904 60.84478896 14.4076901 62.21875 9.6953125 C62.44046875 8.88126953 62.6621875 8.06722656 62.890625 7.22851562 C63.47271344 5.17579788 64.15078802 3.15080179 64.84375 1.1328125 C67.32543614 -0.10803057 69.00801199 0.00348147 71.78125 0 C72.75835938 -0.00128906 73.73546875 -0.00257812 74.7421875 -0.00390625 C75.76570312 -0.00003906 76.78921875 0.00382812 77.84375 0.0078125 C79.37902344 0.00201172 79.37902344 0.00201172 80.9453125 -0.00390625 C81.92242188 -0.00261719 82.89953125 -0.00132813 83.90625 0 C84.80472656 0.00112793 85.70320312 0.00225586 86.62890625 0.00341797 C88.84375 0.1328125 88.84375 0.1328125 90.84375 1.1328125 C91.60840893 3.94950537 92.25854946 6.71579335 92.84375 9.5703125 C93.01962646 10.39200928 93.19550293 11.21370605 93.37670898 12.06030273 C94.27069919 16.26284565 95.10877099 20.47336482 95.90625 24.6953125 C96.5146375 27.87975516 97.38318258 30.82807626 98.46875 33.8828125 C99.71690081 37.41401303 100.13447101 40.35343942 99.84375 44.1328125 C100.50375 44.1328125 101.16375 44.1328125 101.84375 44.1328125 C103.10680335 49.20758044 104.11411084 53.86077604 103.84375 59.1328125 C104.50375 59.1328125 105.16375 59.1328125 105.84375 59.1328125 C106.03710938 60.08542969 106.23046875 61.03804687 106.4296875 62.01953125 C106.82027344 63.90091797 106.82027344 63.90091797 107.21875 65.8203125 C107.47398437 67.06167969 107.72921875 68.30304688 107.9921875 69.58203125 C108.72095269 72.6207815 109.68012092 75.2498621 110.84375 78.1328125 C111.19999095 79.87443492 111.51151968 81.6257121 111.78125 83.3828125 C112.65080015 88.5096802 114.04003967 93.26279462 115.84375 98.1328125 C116.03710938 97.03582031 116.23046875 95.93882812 116.4296875 94.80859375 C116.69243175 93.35411668 116.95546801 91.89969233 117.21875 90.4453125 C117.34507812 89.72408203 117.47140625 89.00285156 117.6015625 88.25976562 C118.32337312 84.30785246 119.30754488 80.8582654 120.84375 77.1328125 C121.24252898 75.22492873 121.59678724 73.30720278 121.90625 71.3828125 C122.73848684 66.23807566 122.73848684 66.23807566 123.84375 65.1328125 C124.12768978 62.61791734 124.2918624 60.10291668 124.46484375 57.578125 C124.84375 55.1328125 124.84375 55.1328125 126.84375 52.1328125 C127.35344001 50.19412472 127.35344001 50.19412472 127.625 48.078125 C127.74488281 47.29824219 127.86476563 46.51835938 127.98828125 45.71484375 C128.10558594 44.90402344 128.22289062 44.09320313 128.34375 43.2578125 C129.07543004 38.24861839 129.8494767 33.81536622 131.84375 29.1328125 C132.26523875 27.20489173 132.64051438 25.2662808 132.96875 23.3203125 C133.22011719 21.85658203 133.22011719 21.85658203 133.4765625 20.36328125 C133.59773437 19.62722656 133.71890625 18.89117187 133.84375 18.1328125 C134.50375 18.1328125 135.16375 18.1328125 135.84375 18.1328125 C135.82054687 17.5759375 135.79734375 17.0190625 135.7734375 16.4453125 C135.64381723 10.96422698 136.16182093 6.36548071 137.84375 1.1328125 C140.24434817 -0.06748658 141.73735649 0.01821507 144.4140625 0.03515625 C145.30996094 0.03837891 146.20585938 0.04160156 147.12890625 0.04492188 C148.53462891 0.05749023 148.53462891 0.05749023 149.96875 0.0703125 C150.91363281 0.07482422 151.85851562 0.07933594 152.83203125 0.08398438 C155.16933387 0.09578893 157.50651061 0.11225491 159.84375 0.1328125 C160.96366797 3.49597042 160.70123516 5.70287187 159.84765625 9.1171875 C159.61884766 10.05175781 159.39003906 10.98632812 159.15429688 11.94921875 C158.90744141 12.91730469 158.66058594 13.88539062 158.40625 14.8828125 C158.04176758 16.35814453 158.04176758 16.35814453 157.66992188 17.86328125 C157.06946669 20.28864923 156.46048274 22.71154195 155.84375 25.1328125 C155.18375 25.1328125 154.52375 25.1328125 153.84375 25.1328125 C153.80636719 25.82246094 153.76898437 26.51210937 153.73046875 27.22265625 C153.33951133 32.81104768 152.53620334 37.6290799 150.6015625 42.87890625 C149.50971969 46.1262944 148.93554396 49.43023582 148.30859375 52.79296875 C147.67860714 55.96407783 146.74650751 59.02958357 145.84375 62.1328125 C145.3414689 64.32636825 144.8665222 66.52383128 144.40625 68.7265625 C143.95901105 70.63975135 143.44240306 72.53669412 142.90234375 74.42578125 C141.8116168 78.24533799 140.84709966 82.08708146 139.90625 85.9453125 C138.78995418 90.48710432 137.62741807 94.98333852 136.21875 99.4453125 C134.88232974 103.71323526 134.11297608 107.97218766 133.46875 112.39453125 C132.67156767 115.88718635 131.32368839 118.87131783 129.84375 122.1328125 C125.55209738 122.16173199 121.26046964 122.17958368 116.96875 122.1953125 C115.74542969 122.20369141 114.52210938 122.21207031 113.26171875 122.22070312 C112.09511719 122.22392578 110.92851563 122.22714844 109.7265625 122.23046875 C108.10838623 122.23832397 108.10838623 122.23832397 106.45751953 122.24633789 C103.84375 122.1328125 103.84375 122.1328125 101.84375 121.1328125 C101.84375 120.1428125 101.84375 119.1528125 101.84375 118.1328125 C101.18375 118.1328125 100.52375 118.1328125 99.84375 118.1328125 C98.2159667 111.98502379 97.64184911 106.49269054 97.84375 100.1328125 C97.18375 100.1328125 96.52375 100.1328125 95.84375 100.1328125 C95.72257813 99.46894531 95.60140625 98.80507812 95.4765625 98.12109375 C94.60919433 93.55073068 93.61127722 89.4411601 91.84375 85.1328125 C90.33710502 79.71508226 89.6047253 74.74989301 89.84375 69.1328125 C89.18375 69.1328125 88.52375 69.1328125 87.84375 69.1328125 C86.49283472 66.43098195 86.50516942 64.01473044 86.28125 61.0078125 C86.19746094 59.91210938 86.11367188 58.81640625 86.02734375 57.6875 C85.96675781 56.84445313 85.90617188 56.00140625 85.84375 55.1328125 C85.18375 55.1328125 84.52375 55.1328125 83.84375 55.1328125 C83.71097656 54.49472656 83.57820312 53.85664062 83.44140625 53.19921875 C83.26480469 52.37292969 83.08820313 51.54664063 82.90625 50.6953125 C82.73222656 49.87160156 82.55820312 49.04789063 82.37890625 48.19921875 C82.03622006 46.15620046 82.03622006 46.15620046 80.84375 45.1328125 C80.44431824 42.61085283 80.09295152 40.10317594 79.78125 37.5703125 C79.69037109 36.85939453 79.59949219 36.14847656 79.50585938 35.41601562 C79.28135497 33.65542847 79.06206603 31.89417772 78.84375 30.1328125 C78.18375 30.1328125 77.52375 30.1328125 76.84375 30.1328125 C76.73417969 30.84824219 76.62460937 31.56367187 76.51171875 32.30078125 C75.28659664 40.00012592 73.67676055 47.55636888 71.84375 55.1328125 C71.18375 55.1328125 70.52375 55.1328125 69.84375 55.1328125 C69.78316406 55.88046875 69.72257813 56.628125 69.66015625 57.3984375 C69.53447266 58.87570313 69.53447266 58.87570313 69.40625 60.3828125 C69.28443359 61.84460938 69.28443359 61.84460938 69.16015625 63.3359375 C68.89300416 65.69743003 68.49003032 67.85182315 67.84375 70.1328125 C67.18375 70.1328125 66.52375 70.1328125 65.84375 70.1328125 C65.77027344 71.23689453 65.77027344 71.23689453 65.6953125 72.36328125 C65.62054687 73.33910156 65.54578125 74.31492187 65.46875 75.3203125 C65.36433594 76.76470703 65.36433594 76.76470703 65.2578125 78.23828125 C64.83670283 81.18207622 63.95805532 83.38831977 62.84375 86.1328125 C62.3006941 88.58199462 61.80395398 91.04171942 61.34375 93.5078125 C60.62976179 97.31833654 59.87553752 101.0217361 58.80859375 104.75 C57.68162047 108.70125043 57.08794602 112.61976057 56.50390625 116.6796875 C55.74128235 119.51357986 55.16868799 120.37885147 52.84375 122.1328125 C50.25585938 122.48925781 50.25585938 122.48925781 47.1875 122.4609375 C46.08277344 122.45578125 44.97804688 122.450625 43.83984375 122.4453125 C42.68613281 122.4246875 41.53242187 122.4040625 40.34375 122.3828125 C39.19003906 122.37765625 38.03632812 122.3725 36.84765625 122.3671875 C28.30771684 122.28746811 28.30771684 122.28746811 24.84375 121.1328125 C24.84375 118.8228125 24.84375 116.5128125 24.84375 114.1328125 C24.18375 114.1328125 23.52375 114.1328125 22.84375 114.1328125 C22.67359375 113.42898437 22.5034375 112.72515625 22.328125 112 C20.91944054 106.26036011 19.41869649 100.56174678 17.78125 94.8828125 C17.1352261 92.63286721 16.48937181 90.3828732 15.84375 88.1328125 C15.61300781 87.33488281 15.38226562 86.53695312 15.14453125 85.71484375 C13.95732839 81.36176661 13.65761876 77.59996216 13.84375 73.1328125 C13.18375 73.1328125 12.52375 73.1328125 11.84375 73.1328125 C11.50502487 71.71742533 11.17300376 70.30043287 10.84375 68.8828125 C10.658125 68.09390625 10.4725 67.305 10.28125 66.4921875 C9.84375 64.1328125 9.84375 64.1328125 9.84375 60.1328125 C9.18375 60.1328125 8.52375 60.1328125 7.84375 60.1328125 C7.65039062 58.94042969 7.45703125 57.74804688 7.2578125 56.51953125 C6.99517084 54.95306138 6.73212912 53.38665855 6.46875 51.8203125 C6.34242188 51.03462891 6.21609375 50.24894531 6.0859375 49.43945312 C5.95703125 48.68212891 5.828125 47.92480469 5.6953125 47.14453125 C5.58010254 46.44803467 5.46489258 45.75153809 5.34619141 45.03393555 C4.87199879 42.82452491 4.87199879 42.82452491 2.84375 40.1328125 C2.28125 37.8984375 2.28125 37.8984375 1.84375 35.3828125 C0.88112465 30.24387407 -0.39753884 25.33683706 -2.1015625 20.38671875 C-4.29396087 14.01252349 -6.03803458 7.78325157 -7.15625 1.1328125 C-4.62178127 -0.13442187 -2.83398046 0.00339922 0 0 Z " fill="#181818" transform="translate(642.15625,66.8671875)"/>
<path d="M0 0 C7.92 0 15.84 0 24 0 C24.02260759 8.77974437 24.04094789 17.55946935 24.05181217 26.33923626 C24.05702692 30.41619131 24.064099 34.49312538 24.07543945 38.57006836 C24.08631837 42.50579344 24.09228745 46.44149836 24.09487724 50.37723732 C24.09672247 51.87750376 24.10032572 53.37776912 24.10573006 54.87802696 C24.11300691 56.98210393 24.11398814 59.08609799 24.11352539 61.19018555 C24.115746 62.38709518 24.11796661 63.58400482 24.12025452 64.81718445 C24.01236103 67.67283652 23.65908702 70.22623587 23 73 C23.66 73 24.32 73 25 73 C25 72.34 25 71.68 25 71 C25.66 71 26.32 71 27 71 C27.268125 70.278125 27.53625 69.55625 27.8125 68.8125 C28.99901362 66.00233617 30.27485639 63.51583443 32 61 C32.66 61 33.32 61 34 61 C34.66 59.35 35.32 57.7 36 56 C36.66 56 37.32 56 38 56 C38.66 54.35 39.32 52.7 40 51 C40.66 51 41.32 51 42 51 C42.2578125 50.27296875 42.515625 49.5459375 42.78125 48.796875 C44.0501564 45.8848975 45.53227252 43.73467284 47.5 41.25 C48.41265625 40.08210938 48.41265625 40.08210938 49.34375 38.890625 C51 37 51 37 53 36 C55.10528933 35.91456105 57.21331157 35.89285275 59.3203125 35.90234375 C60.57714844 35.90556641 61.83398438 35.90878906 63.12890625 35.91210938 C64.44761719 35.92048828 65.76632812 35.92886719 67.125 35.9375 C68.46484211 35.94251511 69.804686 35.94707799 71.14453125 35.95117188 C74.42973206 35.96298914 77.71484397 35.97946383 81 36 C81 36.66 81 37.32 81 38 C80.34 38 79.68 38 79 38 C78.34 39.32 77.68 40.64 77 42 C76.34 42 75.68 42 75 42 C74.7525 42.56203125 74.505 43.1240625 74.25 43.703125 C72.78725133 46.39092569 71.03195127 48.46405482 69 50.75 C67.948125 51.94882813 67.948125 51.94882813 66.875 53.171875 C65 55 65 55 63 55 C62.731875 55.598125 62.46375 56.19625 62.1875 56.8125 C61.00082594 58.99847854 59.90400887 60.41332594 58 62 C57.34 62 56.68 62 56 62 C55.79375 62.721875 55.5875 63.44375 55.375 64.1875 C53.60768726 67.80245787 51.09827794 69.48264917 48 72 C46.39490123 73.87064767 46.39490123 73.87064767 46 76 C46.78702351 78.7193293 46.78702351 78.7193293 48 81 C48.66 81 49.32 81 50 81 C50.268125 81.598125 50.53625 82.19625 50.8125 82.8125 C51.87296728 85.0299713 51.87296728 85.0299713 53.5625 86.5 C55.26316011 88.27460185 55.58794182 89.61006256 56 92 C56.66 92 57.32 92 58 92 C59.63139937 93.92587579 61.13723225 95.84326717 62.625 97.875 C63.04523437 98.43058594 63.46546875 98.98617187 63.8984375 99.55859375 C67 103.73764712 67 103.73764712 67 106 C67.66 106 68.32 106 69 106 C71.12282212 108.85254222 72.80356563 111.48002666 74.0625 114.8125 C74.371875 115.534375 74.68125 116.25625 75 117 C76.485 117.495 76.485 117.495 78 118 C78.6875 120.0625 78.6875 120.0625 79 122 C79.66 122 80.32 122 81 122 C81.66 123.65 82.32 125.3 83 127 C80.59276006 129.40723994 74.48082821 128.23364138 71.25 128.25 C70.24710938 128.270625 69.24421875 128.29125 68.2109375 128.3125 C58.82332646 128.36230165 58.82332646 128.36230165 55 125 C53.6875 122.3125 53.6875 122.3125 53 120 C52.34 120 51.68 120 51 120 C50.01160044 118.60610318 49.03345991 117.20333837 48.11914062 115.75976562 C47.00859279 114.01351153 45.84001654 112.32683994 44.640625 110.640625 C44.24746094 110.08246094 43.85429688 109.52429688 43.44921875 108.94921875 C42.63718076 107.79861117 41.82197764 106.65023199 41.00390625 105.50390625 C38 101.22259136 38 101.22259136 38 99 C37.34 99 36.68 99 36 99 C34 96 34 96 34 93 C33.34 93 32.68 93 32 93 C32 92.34 32 91.68 32 91 C28.17883449 92.27372184 27.16507274 93.63128294 25 97 C24.37871742 100.35829445 24.37871742 100.35829445 24.42578125 104.015625 C24.40453438 105.0002774 24.40453438 105.0002774 24.38285828 106.00482178 C24.34115527 108.08671775 24.32574895 110.16774615 24.3125 112.25 C24.28345369 114.34613523 24.2489791 116.44205146 24.21000671 118.5380249 C24.17727741 120.42917456 24.15921017 122.32056092 24.1418457 124.21191406 C24 127 24 127 23 128 C21.45044441 128.09899523 19.89646327 128.13079524 18.34375 128.1328125 C16.93416016 128.13474609 16.93416016 128.13474609 15.49609375 128.13671875 C14.50738281 128.13285156 13.51867187 128.12898437 12.5 128.125 C11.51128906 128.12886719 10.52257812 128.13273438 9.50390625 128.13671875 C8.56417969 128.13542969 7.62445312 128.13414062 6.65625 128.1328125 C5.78806641 128.13168457 4.91988281 128.13055664 4.02539062 128.12939453 C2 128 2 128 1 127 C0.89174421 125.35549337 0.85314732 123.70636111 0.84178162 122.05833435 C0.8319928 120.98836212 0.82220398 119.91838989 0.81211853 118.81599426 C0.80636307 117.63204575 0.8006076 116.44809723 0.79467773 115.22827148 C0.78477814 113.989422 0.77487854 112.75057251 0.76467896 111.47418213 C0.73842776 108.06733026 0.71659204 104.66050263 0.69667697 101.25361133 C0.67485558 97.69680391 0.64744814 94.14003976 0.62062073 90.58326721 C0.57064165 83.84366558 0.52572224 77.10403999 0.48259836 70.36439139 C0.43327046 62.69338528 0.37833589 55.02242258 0.32291877 47.35145843 C0.20901869 31.56767747 0.10293748 15.78385684 0 0 Z " fill="#161616" transform="translate(549,61)"/>
<path d="M0 0 C0.84014648 0.00418945 1.68029297 0.00837891 2.54589844 0.01269531 C12.52362796 0.19438973 21.80353061 2.42853061 29.0625 9.6875 C30.87805091 12.62031301 31.37016877 14.90118923 31.6875 18.3125 C32.3475 18.3125 33.0075 18.3125 33.6875 18.3125 C34.47326156 21.80637878 34.83187989 25.07537645 34.89282227 28.65356445 C34.9227401 30.21461662 34.9227401 30.21461662 34.95326233 31.8072052 C34.96997482 32.9188353 34.98668732 34.03046539 35.00390625 35.17578125 C35.02468735 36.32290085 35.04546844 37.47002045 35.06687927 38.65190125 C35.13216619 42.30954098 35.19116286 45.96725138 35.25 49.625 C35.29320504 52.10742913 35.33681997 54.58985116 35.38085938 57.07226562 C35.48782622 63.15226945 35.58963114 69.23234329 35.6875 75.3125 C36.615625 75.60125 37.54375 75.89 38.5 76.1875 C41.6875 77.3125 41.6875 77.3125 44.6875 79.3125 C44.98046875 82.5703125 44.98046875 82.5703125 44.875 86.4375 C44.83439453 88.35949219 44.83439453 88.35949219 44.79296875 90.3203125 C44.74076172 91.80144531 44.74076172 91.80144531 44.6875 93.3125 C36.45644906 96.0001901 29.6528211 95.94148799 21.6875 92.3125 C19.125 90.3125 19.125 90.3125 17.6875 88.3125 C17.6875 87.3225 17.6875 86.3325 17.6875 85.3125 C17.0275 85.3125 16.3675 85.3125 15.6875 85.3125 C15.6875 84.3225 15.6875 83.3325 15.6875 82.3125 C15.130625 82.869375 14.57375 83.42625 14 84 C12.8553125 85.1446875 12.8553125 85.1446875 11.6875 86.3125 C10.57375 87.5809375 10.57375 87.5809375 9.4375 88.875 C6.08725041 91.84453941 2.93101946 93.06390978 -1.3125 94.3125 C-1.93125 94.49554688 -2.55 94.67859375 -3.1875 94.8671875 C-12.99921833 96.92331965 -22.59771861 95.17688269 -31.3125 90.3125 C-31.6425 89.3225 -31.9725 88.3325 -32.3125 87.3125 C-33.3025 86.9825 -34.2925 86.6525 -35.3125 86.3125 C-35.3125 85.6525 -35.3125 84.9925 -35.3125 84.3125 C-35.9725 84.3125 -36.6325 84.3125 -37.3125 84.3125 C-41.41459868 76.98732379 -42.49555323 69.06139927 -40.8125 60.8828125 C-38.75172887 53.92770995 -34.79989438 48.51445184 -28.6640625 44.48046875 C-15.41695932 37.90092747 -0.6849077 38.84446067 13.6875 39.3125 C13.15133335 36.34710905 12.58531319 33.39321946 12 30.4375 C11.77666992 29.17486328 11.77666992 29.17486328 11.54882812 27.88671875 C11.07885919 25.58294948 10.59771617 23.48120888 9.6875 21.3125 C7.33424387 19.67019406 7.33424387 19.67019406 4.6875 19.3125 C3.6975 18.9825 2.7075 18.6525 1.6875 18.3125 C-2.94078525 17.77473733 -6.42052307 17.89954772 -10.6875 19.875 C-13.92394493 22.88027029 -14.88057362 25.1758238 -16.3125 29.3125 C-23.0982936 28.76386137 -29.66259036 27.76982062 -36.3125 26.3125 C-37.37083703 23.02949532 -37.31062159 22.30696362 -36.125 18.8125 C-34.45683015 15.5912065 -33.1143847 13.57208443 -30.3125 11.3125 C-29.6525 11.3125 -28.9925 11.3125 -28.3125 11.3125 C-28.07917969 10.70664063 -27.84585938 10.10078125 -27.60546875 9.4765625 C-25.9716568 6.74202527 -24.48377361 6.04465133 -21.625 4.6875 C-20.79613281 4.28273438 -19.96726562 3.87796875 -19.11328125 3.4609375 C-12.63574188 0.80487533 -6.91989428 -0.04692389 0 0 Z M-18.3125 60.3125 C-19.80392111 64.78676332 -20.05520548 68.63164023 -18.125 73 C-15.18528975 76.75066481 -12.68286391 78.85571203 -8.125 80.375 C-2.61766971 80.2847159 1.24809541 78.5305198 5.6875 75.3125 C10.76641948 69.72255988 13.45480161 63.50107096 13.875 55.9375 C13.9808543 53.38754412 13.9808543 53.38754412 12.6875 52.3125 C9.82023472 52.15735141 6.993693 52.08067066 4.125 52.0625 C2.94454102 52.0315625 2.94454102 52.0315625 1.74023438 52 C-6.44217085 51.94603525 -12.89734085 53.74867073 -18.3125 60.3125 Z " fill="#121212" transform="translate(844.3125,94.6875)"/>
<path d="M0 0 C1.10371948 0.00628418 1.10371948 0.00628418 2.22973633 0.01269531 C11.01345663 0.19244272 19.90263014 1.41615373 26.75 7.3125 C26.75 7.9725 26.75 8.6325 26.75 9.3125 C27.74 9.6425 28.73 9.9725 29.75 10.3125 C30.4375 12.375 30.4375 12.375 30.75 14.3125 C31.41 14.3125 32.07 14.3125 32.75 14.3125 C35.39134326 20.87681154 36.1549495 26.5222056 36.0078125 33.5625 C35.99788773 34.9714856 35.99788773 34.9714856 35.98776245 36.40893555 C35.96455211 39.37713956 35.92082377 42.34456666 35.875 45.3125 C35.83995158 48.30890021 35.80922196 51.30526176 35.78366089 54.30175781 C35.76665451 56.15924842 35.74348876 58.01669459 35.71365356 59.87402344 C35.68847536 62.02006879 35.71389643 64.16661064 35.75 66.3125 C36.08 66.6425 36.41 66.9725 36.75 67.3125 C36.79125 68.59125 36.8325 69.87 36.875 71.1875 C37.01630417 73.36115704 37.01630417 73.36115704 37.75 75.3125 C40.03903572 77.00031911 41.96658734 77.50277995 44.75 78.3125 C44.97127098 80.60295368 45.1766504 82.89494764 45.375 85.1875 C45.49101563 86.46367187 45.60703125 87.73984375 45.7265625 89.0546875 C45.73816406 90.66730469 45.73816406 90.66730469 45.75 92.3125 C43.24422158 94.81827842 41.6559617 94.59923131 38.22851562 94.63476562 C37.15633789 94.62993164 37.15633789 94.62993164 36.0625 94.625 C35.36705078 94.64111328 34.67160156 94.65722656 33.95507812 94.67382812 C28.16065 94.67923842 23.69456015 93.37369211 18.875 90 C17.25248822 87.56623233 17.06870175 85.18081578 16.75 82.3125 C16.29625 82.8075 15.8425 83.3025 15.375 83.8125 C13.75 85.3125 13.75 85.3125 11.75 85.3125 C11.54375 85.89 11.3375 86.4675 11.125 87.0625 C8.47466885 91.39940552 3.86463139 93.79422426 -1.0078125 94.99609375 C-11.64181107 96.49671027 -21.31913897 95.80529089 -30.3125 89.75 C-31.281875 88.945625 -32.25125 88.14125 -33.25 87.3125 C-33.25 86.6525 -33.25 85.9925 -33.25 85.3125 C-33.91 85.3125 -34.57 85.3125 -35.25 85.3125 C-40.35637117 77.07641746 -41.43574043 69.14239044 -39.5 59.625 C-36.97862948 52.94336812 -32.97382282 47.19562978 -26.5078125 43.92578125 C-16.96846648 39.77461945 -8.60090409 39.1669775 1.6875 39.25 C3.28561523 39.25676758 3.28561523 39.25676758 4.91601562 39.26367188 C7.52736822 39.27538198 10.13869163 39.29331488 12.75 39.3125 C12.75 34.3625 12.75 29.4125 12.75 24.3125 C12.09 24.3125 11.43 24.3125 10.75 24.3125 C9.96625 23.508125 9.1825 22.70375 8.375 21.875 C4.8091139 18.39401595 3.21750238 18.42120388 -1.625 18.0625 C-6.47736191 18.39714565 -9.71593514 19.67263756 -13.0625 23.25 C-14.23858039 25.29266594 -14.83726416 27.00117929 -15.25 29.3125 C-20.31316683 29.46889125 -24.75398438 28.94016071 -29.6875 27.8125 C-30.92371094 27.5340625 -32.15992188 27.255625 -33.43359375 26.96875 C-34.36300781 26.7521875 -35.29242187 26.535625 -36.25 26.3125 C-35.92 24.0025 -35.59 21.6925 -35.25 19.3125 C-34.59 19.3125 -33.93 19.3125 -33.25 19.3125 C-33.188125 18.590625 -33.12625 17.86875 -33.0625 17.125 C-31.99416929 13.42693214 -30.07491139 11.86837221 -27.25 9.3125 C-26.77691406 8.81105469 -26.30382812 8.30960937 -25.81640625 7.79296875 C-24.14787303 6.21597601 -22.61131861 5.27648721 -20.5625 4.25 C-19.93988281 3.92902344 -19.31726563 3.60804687 -18.67578125 3.27734375 C-12.47417837 0.81068367 -6.6118241 -0.05200741 0 0 Z M-16.3125 58.3125 C-17.53295592 60.54800185 -17.53295592 60.54800185 -17.25 64.3125 C-17.91 64.3125 -18.57 64.3125 -19.25 64.3125 C-18.344716 70.2873744 -16.91799759 74.91682855 -12.1875 78.875 C-8.20965997 80.81356761 -4.95629165 80.36227185 -0.7578125 79.27734375 C3.35400791 77.69538169 6.73263956 75.53469431 9.75 72.3125 C10.86635105 69.61031554 10.86635105 69.61031554 10.75 67.3125 C11.41 67.3125 12.07 67.3125 12.75 67.3125 C13.08 62.3625 13.41 57.4125 13.75 52.3125 C-2.48760187 51.10540714 -2.48760187 51.10540714 -16.3125 58.3125 Z " fill="#131313" transform="translate(971.25,94.6875)"/>
<path d="M0 0 C2.82636675 2.42710305 4.99921255 4.7212409 7.1015625 7.8046875 C7.1015625 8.7946875 7.1015625 9.7846875 7.1015625 10.8046875 C7.7615625 10.8046875 8.4215625 10.8046875 9.1015625 10.8046875 C15.99224504 27.71355793 17.86291192 45.16787619 10.9765625 62.5546875 C10.363917 63.97674057 9.7437074 65.39570937 9.1015625 66.8046875 C8.4415625 66.8046875 7.7815625 66.8046875 7.1015625 66.8046875 C6.9159375 67.4853125 6.7303125 68.1659375 6.5390625 68.8671875 C2.38435438 77.35724323 -5.47831369 81.26562277 -13.8984375 84.8046875 C-24.92732923 88.04697083 -38.84189214 87.04757151 -49.2109375 82.30859375 C-53.03307216 80.16975386 -56.82807827 77.96780682 -59.8984375 74.8046875 C-59.8984375 74.1446875 -59.8984375 73.4846875 -59.8984375 72.8046875 C-60.8884375 72.4746875 -61.8784375 72.1446875 -62.8984375 71.8046875 C-64.28515625 70.09765625 -64.28515625 70.09765625 -65.5859375 67.9921875 C-66.24142578 66.96158203 -66.24142578 66.96158203 -66.91015625 65.91015625 C-67.8984375 63.8046875 -67.8984375 63.8046875 -67.8984375 59.8046875 C-68.5584375 59.8046875 -69.2184375 59.8046875 -69.8984375 59.8046875 C-70.37486102 57.42256992 -70.84967111 55.0402928 -71.31640625 52.65625 C-71.68448496 50.85291135 -72.07958921 49.05469634 -72.51171875 47.265625 C-74.9923578 36.6343148 -72.49847324 27.23753532 -69.8984375 16.8046875 C-69.2384375 16.8046875 -68.5784375 16.8046875 -67.8984375 16.8046875 C-67.681875 15.3815625 -67.681875 15.3815625 -67.4609375 13.9296875 C-66.8984375 10.8046875 -66.8984375 10.8046875 -65.8984375 8.8046875 C-65.2384375 8.8046875 -64.5784375 8.8046875 -63.8984375 8.8046875 C-63.6303125 8.21558594 -63.3621875 7.62648438 -63.0859375 7.01953125 C-58.82207229 -0.93313841 -51.00142745 -5.02937152 -42.78515625 -7.9453125 C-27.91702596 -11.97734783 -12.22420195 -9.27765164 0 0 Z M-41.8984375 12.8046875 C-43.12447036 14.85893504 -43.12447036 14.85893504 -43.8984375 16.8046875 C-44.5584375 16.8046875 -45.2184375 16.8046875 -45.8984375 16.8046875 C-49.51572156 24.25349112 -50.52382113 30.5711625 -50.3984375 38.8046875 C-50.41390625 39.82046875 -50.429375 40.83625 -50.4453125 41.8828125 C-50.40668032 49.41608794 -49.35927291 56.93923793 -44.15893555 62.74755859 C-38.84094364 67.6243598 -33.8023566 69.42803906 -26.59375 69.234375 C-21.60377287 68.4388714 -17.48732135 66.33928571 -13.8984375 62.8046875 C-8.37322027 55.05522113 -8.24412376 47.61825105 -8.5234375 38.3671875 C-8.53761719 37.10197266 -8.55179688 35.83675781 -8.56640625 34.53320312 C-8.56202663 28.06468112 -8.56202663 28.06468112 -9.8984375 21.8046875 C-10.5584375 21.8046875 -11.2184375 21.8046875 -11.8984375 21.8046875 C-11.9396875 20.9178125 -11.9809375 20.0309375 -12.0234375 19.1171875 C-13.37050355 14.01758032 -16.73729627 12.06535322 -21.1484375 9.4921875 C-28.43625575 7.67023294 -35.82915453 7.98496279 -41.8984375 12.8046875 Z " fill="#151515" transform="translate(463.8984375,104.1953125)"/>
<path d="M0 0 C4.8277256 2.52685212 8.69044148 5.70411832 11.4375 10.4375 C12.30428091 14.45353124 12.27955801 18.37200703 12.234375 22.46875 C12.24011536 23.61863403 12.24585571 24.76851807 12.25177002 25.95324707 C12.25584136 28.37721738 12.24485079 30.80125414 12.21972656 33.22509766 C12.18759718 36.92630529 12.21944922 40.62314625 12.2578125 44.32421875 C12.25384745 46.68490543 12.2461597 49.0455894 12.234375 51.40625 C12.24652039 52.50747192 12.25866577 53.60869385 12.2711792 54.74328613 C12.15852495 60.92595301 11.48874353 64.63045329 7.11260986 69.13391113 C5.4375 70.4375 5.4375 70.4375 3.29930115 71.43273926 C1.09336901 72.34941326 1.09336901 72.34941326 0.44848633 75.38671875 C0.22443115 76.62035156 0.00037598 77.85398437 -0.23046875 79.125 C-0.35561356 79.78330811 -0.48075836 80.44161621 -0.60969543 81.11987305 C-1.00622833 83.22308191 -1.37875521 85.32969464 -1.75 87.4375 C-2.13688736 89.5441269 -2.52859361 91.64979075 -2.92243958 93.75512695 C-3.27711785 95.66466115 -3.61967998 97.57643386 -3.96166992 99.48828125 C-4.5625 102.4375 -4.5625 102.4375 -5.5625 104.4375 C-11.1725 104.4375 -16.7825 104.4375 -22.5625 104.4375 C-28.6936054 78.68685733 -28.6936054 78.68685733 -28.5625 72.4375 C-29.614375 72.1590625 -29.614375 72.1590625 -30.6875 71.875 C-34.7629599 69.83727005 -37.28616479 67.40419326 -39.5625 63.4375 C-40.43744138 59.43408766 -40.42805488 55.52782301 -40.39453125 51.44140625 C-40.40264328 50.29389389 -40.41075531 49.14638153 -40.41911316 47.96409607 C-40.42755451 45.54434807 -40.42075483 43.12450474 -40.3996582 40.70483398 C-40.37509479 37.01424261 -40.41977453 33.32890369 -40.47070312 29.63867188 C-40.4703326 27.28124562 -40.46590982 24.92381581 -40.45703125 22.56640625 C-40.47433792 21.47034561 -40.49164459 20.37428497 -40.50947571 19.24501038 C-40.38723208 12.50965109 -39.22671547 8.84847571 -34.4773407 3.99913025 C-24.80255962 -3.8910461 -11.20200728 -5.27813877 0 0 Z " fill="#0284FE" transform="translate(129.5625,89.5625)"/>
<path d="M0 0 C7.92 0 15.84 0 24 0 C24 35.97 24 71.94 24 109 C27.33810482 110.66905241 30.46157845 111.8741386 34 113 C34.91863327 116.44487478 35.05428223 119.65410752 35.03125 123.1953125 C35.02673828 124.09523926 35.02222656 124.99516602 35.01757812 125.92236328 C35.01177734 126.6079834 35.00597656 127.29360352 35 128 C31.47945086 128.11709643 27.95940888 128.1875469 24.4375 128.25 C23.44685547 128.28351563 22.45621094 128.31703125 21.43554688 128.3515625 C15.02285814 128.43678096 11.2526685 127.74243422 6 124 C6 123.34 6 122.68 6 122 C5.34 122 4.68 122 4 122 C2.49473548 117.27523232 1.74251549 113.27160377 1.69702148 108.27026367 C1.68037949 106.9758989 1.66373749 105.68153412 1.64659119 104.34794617 C1.63803283 102.95462072 1.62953511 101.56129491 1.62109375 100.16796875 C1.60489988 98.72543737 1.58771793 97.28291677 1.56959534 95.84040833 C1.5241202 92.0617877 1.48919711 88.28315233 1.45739746 84.50439453 C1.40530922 78.4391497 1.3404174 72.37406244 1.26918221 66.30901527 C1.24635072 64.19179845 1.23008592 62.07460189 1.21446228 59.95732117 C1.20097244 58.67871719 1.1874826 57.40011322 1.17358398 56.08276367 C1.16407211 54.95360031 1.15456024 53.82443695 1.14476013 52.66105652 C1.17839314 50.02514563 1.17839314 50.02514563 0 48 C-0.08991092 46.45772144 -0.11756961 44.91159105 -0.11352539 43.36669922 C-0.11344986 42.40585419 -0.11337433 41.44500916 -0.11329651 40.45504761 C-0.10813522 39.41542877 -0.10297394 38.37580994 -0.09765625 37.3046875 C-0.0962413 36.24210724 -0.09482635 35.17952698 -0.09336853 34.08474731 C-0.08775834 30.68146991 -0.07520409 27.27825762 -0.0625 23.875 C-0.05748631 21.57161553 -0.05292318 19.26823003 -0.04882812 16.96484375 C-0.03863527 11.30985039 -0.01906179 5.65499833 0 0 Z " fill="#141414" transform="translate(894,61)"/>
<path d="M0 0 C1 1 1 1 1.11352539 2.94946289 C1.10828857 3.7821167 1.10305176 4.61477051 1.09765625 5.47265625 C1.09443359 6.37177734 1.09121094 7.27089844 1.08789062 8.19726562 C1.07532227 9.61555664 1.07532227 9.61555664 1.0625 11.0625 C1.05798828 12.01189453 1.05347656 12.96128906 1.04882812 13.93945312 C1.0370011 16.29303065 1.02052025 18.64648477 1 21 C0.01 20.94199219 -0.98 20.88398437 -2 20.82421875 C-8.94820047 20.54017005 -14.73874827 20.3178878 -20.58203125 24.61328125 C-22.24626655 26.14511844 -22.24626655 26.14511844 -24 29 C-24.66 29 -25.32 29 -26 29 C-26.13277344 29.63808594 -26.26554688 30.27617188 -26.40234375 30.93359375 C-26.66724609 32.17302734 -26.66724609 32.17302734 -26.9375 33.4375 C-27.11152344 34.26121094 -27.28554688 35.08492187 -27.46484375 35.93359375 C-28 38 -28 38 -29 39 C-29.11776764 40.681961 -29.16731475 42.36875396 -29.18945312 44.0546875 C-29.20617065 45.13250488 -29.22288818 46.21032227 -29.2401123 47.32080078 C-29.25368774 48.49368652 -29.26726318 49.66657227 -29.28125 50.875 C-29.29965942 52.0697998 -29.31806885 53.26459961 -29.33703613 54.49560547 C-29.39600719 58.33035183 -29.44873442 62.16514333 -29.5 66 C-29.56739993 71.0417668 -29.64106897 76.08338232 -29.71875 81.125 C-29.73232544 82.29788574 -29.74590088 83.47077148 -29.7598877 84.67919922 C-29.77660522 85.7570166 -29.79332275 86.83483398 -29.81054688 87.9453125 C-29.82933899 89.37641357 -29.82933899 89.37641357 -29.84851074 90.83642578 C-30 93 -30 93 -31 94 C-32.46478506 94.09883336 -33.93422958 94.13079289 -35.40234375 94.1328125 C-36.29244141 94.13410156 -37.18253906 94.13539063 -38.09960938 94.13671875 C-39.50436523 94.13091797 -39.50436523 94.13091797 -40.9375 94.125 C-41.87013672 94.12886719 -42.80277344 94.13273437 -43.76367188 94.13671875 C-44.65505859 94.13542969 -45.54644531 94.13414062 -46.46484375 94.1328125 C-47.285896 94.13168457 -48.10694824 94.13055664 -48.95288086 94.12939453 C-51 94 -51 94 -53 93 C-53 62.97 -53 32.94 -53 2 C-45.74 2 -38.48 2 -31 2 C-31 4.97 -31 7.94 -31 11 C-30.01 11.33 -29.02 11.66 -28 12 C-27.690625 11.1646875 -27.690625 11.1646875 -27.375 10.3125 C-24.1492343 4.88734859 -19.39528201 2.26782779 -13.51953125 0.49609375 C-9.04692838 -0.38455829 -4.533003 -0.42092171 0 0 Z " fill="#0F0F0F" transform="translate(543,95)"/>
<path d="M0 0 C3.87160563 2.73766256 6.31739514 5.81470142 7.34375 10.4921875 C7.68556003 15.70928791 6.36726728 19.42922903 3.3359375 23.65625 C0.37226278 27.0140304 -2.34147558 28.10909516 -6.75 28.62890625 C-12.72966639 28.89628971 -16.52519324 28.47840793 -21.1328125 24.3203125 C-25.17911767 19.72720934 -26.61733152 16.83928632 -26.5390625 10.7734375 C-25.80249049 6.32567572 -23.36369371 3.35193231 -20.1328125 0.3203125 C-13.17392172 -3.72849668 -6.97064744 -3.87860928 0 0 Z " fill="#0485FD" transform="translate(125.1328125,53.6796875)"/>
<path d="M0 0 C7.26 0 14.52 0 22 0 C22 2.97 22 5.94 22 9 C22.66 9.33 23.32 9.66 24 10 C23.34 11.65 22.68 13.3 22 15 C21.34 15 20.68 15 20 15 C20 10.38 20 5.76 20 1 C14.06 1 8.12 1 2 1 C2 30.7 2 60.4 2 91 C1.34 91 0.68 91 0 91 C0 60.97 0 30.94 0 0 Z " fill="#FEFEFE" transform="translate(490,97)"/>
<path d="M0 0 C1.31733257 3.67282789 0.6062447 5.99032434 -0.4375 9.6875 C-3.70884093 24.08441517 -3.47812339 40.26218772 0.34375 54.5234375 C1 57 1 57 1 60 C0.34 60 -0.32 60 -1 60 C-2.26305335 54.92523206 -3.27036084 50.27203646 -3 45 C-3.66 45 -4.32 45 -5 45 C-5.05823729 40.4583875 -5.09367675 35.9168716 -5.125 31.375 C-5.15013672 29.44720703 -5.15013672 29.44720703 -5.17578125 27.48046875 C-5.18222656 26.23652344 -5.18867188 24.99257812 -5.1953125 23.7109375 C-5.21102295 21.99849854 -5.21102295 21.99849854 -5.22705078 20.25146484 C-4.98950993 16.84977769 -4.18586492 14.1831111 -3 11 C-2.61490995 9.23563315 -2.25841364 7.46466042 -1.9375 5.6875 C-1.10948905 1.10948905 -1.10948905 1.10948905 0 0 Z " fill="#F2F9FD" transform="translate(29,73)"/>
<path d="M0 0 C0.89589844 0.00322266 1.79179688 0.00644531 2.71484375 0.00976562 C4.12056641 0.02233398 4.12056641 0.02233398 5.5546875 0.03515625 C6.49957031 0.03966797 7.44445312 0.04417969 8.41796875 0.04882812 C10.75527137 0.06063268 13.09244811 0.07709866 15.4296875 0.09765625 C16.54960547 3.46081417 16.28717266 5.66771562 15.43359375 9.08203125 C15.20478516 10.01660156 14.97597656 10.95117188 14.74023438 11.9140625 C14.49337891 12.88214844 14.24652344 13.85023437 13.9921875 14.84765625 C13.74919922 15.83121094 13.50621094 16.81476563 13.25585938 17.828125 C12.65540419 20.25349298 12.04642024 22.6763857 11.4296875 25.09765625 C10.7696875 25.09765625 10.1096875 25.09765625 9.4296875 25.09765625 C10.73117863 17.31933282 12.4535419 9.73276423 14.4296875 2.09765625 C7.8296875 2.09765625 1.2296875 2.09765625 -5.5703125 2.09765625 C-5.9003125 5.06765625 -6.2303125 8.03765625 -6.5703125 11.09765625 C-6.87736104 12.76936498 -7.19594101 14.43972535 -7.5703125 16.09765625 C-7.9003125 16.09765625 -8.2303125 16.09765625 -8.5703125 16.09765625 C-8.79572925 10.68765432 -8.18069159 6.28665554 -6.5703125 1.09765625 C-4.16971433 -0.10264283 -2.67670601 -0.01694118 0 0 Z " fill="#C3C2C3" transform="translate(786.5703125,66.90234375)"/>
<path d="M0 0 C2 1 2 1 2.59765625 2.71484375 C6.09884955 19.45584366 8.1601373 41.9649026 1 58 C-0.12435141 54.62694576 0.24660936 52.4321129 1 49 C1.0370279 47.3337447 1.04759962 45.66598681 1 44 C1.66 44 2.32 44 3 44 C2.90535703 39.50138101 2.79904185 35.00322258 2.68261719 30.50512695 C2.64469716 28.97981 2.60978517 27.4544148 2.578125 25.92895508 C2.39282769 17.1070661 1.99270462 8.64168789 0 0 Z " fill="#97CAF8" transform="translate(200,75)"/>
<path d="M0 0 C3.60409919 -0.05800828 7.20807851 -0.09359869 10.8125 -0.125 C12.34874023 -0.15013672 12.34874023 -0.15013672 13.91601562 -0.17578125 C14.89892578 -0.18222656 15.88183594 -0.18867187 16.89453125 -0.1953125 C17.80050049 -0.20578613 18.70646973 -0.21625977 19.63989258 -0.22705078 C22 0 22 0 25 2 C25.51171875 4.8203125 25.51171875 4.8203125 25.6875 8.125 C25.75324219 9.22070312 25.81898438 10.31640625 25.88671875 11.4453125 C25.92410156 12.28835937 25.96148437 13.13140625 26 14 C23.93648216 10.31514671 23.23326125 7.31641436 22 3 C15.07 2.67 8.14 2.34 1 2 C1.33 4.31 1.66 6.62 2 9 C0.4375 7.3125 0.4375 7.3125 -1 5 C-0.58984375 2.35546875 -0.58984375 2.35546875 0 0 Z " fill="#BCBCBC" transform="translate(223,67)"/>
<path d="M0 0 C0.33 0 0.66 0 1 0 C1.03738281 1.13695313 1.07476563 2.27390625 1.11328125 3.4453125 C1.46956695 12.32735074 2.26285547 20.62077239 4.37890625 29.27734375 C5 32 5 32 5 35 C4.34 35 3.68 35 3 35 C1.73694665 29.92523206 0.72963916 25.27203646 1 20 C0.34 20 -0.32 20 -1 20 C-0.67 13.4 -0.34 6.8 0 0 Z " fill="#DBEEFB" transform="translate(25,98)"/>
<path d="M0 0 C4.25209792 4.12324647 8.13635705 8.51282966 12 13 C15.31697361 12.44008352 16.71174669 11.59855293 18.75 8.9375 C19.4925 7.968125 20.235 6.99875 21 6 C21 9 21 9 20 11 C19.34 11 18.68 11 18 11 C17.67 12.32 17.34 13.64 17 15 C14.3125 15.3125 14.3125 15.3125 11 15 C6.63452926 11.5076234 3.02511724 6.70920312 0 2 C0 1.34 0 0.68 0 0 Z " fill="#E5F4FB" transform="translate(102,229)"/>
<path d="M0 0 C6.6 0 13.2 0 20 0 C20 2.97 20 5.94 20 9 C20.66 9.33 21.32 9.66 22 10 C21.34 11.65 20.68 13.3 20 15 C19.34 15 18.68 15 18 15 C18 10.38 18 5.76 18 1 C12.06 1 6.12 1 0 1 C0 0.67 0 0.34 0 0 Z " fill="#B6B5B6" transform="translate(492,97)"/>
<path d="M0 0 C0.66 0.33 1.32 0.66 2 1 C1.56655273 1.39791748 1.13310547 1.79583496 0.68652344 2.20581055 C-1.29571035 4.02939147 -3.27287337 5.85838377 -5.25 7.6875 C-5.93191406 8.31333984 -6.61382812 8.93917969 -7.31640625 9.58398438 C-10.85686722 12.86664478 -14.1113484 16.10627632 -17 20 C-17.66 19.67 -18.32 19.34 -19 19 C-5.24137931 3.49425287 -5.24137931 3.49425287 0 0 Z " fill="#087EF7" transform="translate(62,30)"/>
<path d="M0 0 C0.66 0.33 1.32 0.66 2 1 C-0.03995513 2.89770306 -2.08189835 4.79318945 -4.125 6.6875 C-4.69476563 7.21794922 -5.26453125 7.74839844 -5.8515625 8.29492188 C-9.47648245 11.65209206 -13.17778532 14.86903691 -17 18 C-14.37329753 12.08991945 -10.24857614 8.17445954 -5.25 4.1875 C-4.26515625 3.39730469 -3.2803125 2.60710938 -2.265625 1.79296875 C-1.51796875 1.20128906 -0.7703125 0.60960938 0 0 Z " fill="#DAEEFA" transform="translate(62,28)"/>
<path d="M0 0 C-1.39750048 3.15835107 -3.05198234 5.32272825 -5.5 7.75 C-6.41265625 8.67039062 -6.41265625 8.67039062 -7.34375 9.609375 C-9 11 -9 11 -11 11 C-9.60249952 7.84164893 -7.94801766 5.67727175 -5.5 3.25 C-4.8915625 2.63640625 -4.283125 2.0228125 -3.65625 1.390625 C-2 0 -2 0 0 0 Z " fill="#626262" transform="translate(411,102)"/>
<path d="M0 0 C0.33 0 0.66 0 1 0 C1.23360546 5.48972839 0.81834969 10.76943854 -1 16 C-1.66 16.33 -2.32 16.66 -3 17 C-2.9278125 16.40832031 -2.855625 15.81664062 -2.78125 15.20703125 C-2.30089977 11.11738278 -1.86689849 7.1261469 -2 3 C-1.34 3 -0.68 3 0 3 C0 2.01 0 1.02 0 0 Z " fill="#A6D2FA" transform="translate(203,116)"/>
<path d="M0 0 C-1.59092052 4.13639336 -4.60474918 7.23213248 -8 10 C-8.66 10 -9.32 10 -10 10 C-9.43867066 6.4628562 -8.30442253 5.00738321 -5.5625 2.75 C-4.94503906 2.22921875 -4.32757812 1.7084375 -3.69140625 1.171875 C-2 0 -2 0 0 0 Z " fill="#6E6E6E" transform="translate(949,101)"/>
<path d="M0 0 C0.66 0.33 1.32 0.66 2 1 C1.45730469 1.53109375 0.91460938 2.0621875 0.35546875 2.609375 C-0.35996094 3.31578125 -1.07539062 4.0221875 -1.8125 4.75 C-2.87404297 5.79414063 -2.87404297 5.79414063 -3.95703125 6.859375 C-5.82275879 8.81428645 -7.43169642 10.80338553 -9 13 C-8.56572515 8.07821839 -6.30904303 5.54540325 -3 2 C-2.01 1.34 -1.02 0.68 0 0 Z " fill="#898989" transform="translate(814,141)"/>
<path d="M0 0 C0 0.66 0 1.32 0 2 C-1.97946592 3.36363208 -3.9819245 4.69418644 -6 6 C-7.79394446 7.62351109 -7.79394446 7.62351109 -9 9 C-9.99 8.67 -10.98 8.34 -12 8 C-10.89764064 7.03958829 -9.79303376 6.08175593 -8.6875 5.125 C-7.76517578 4.32449219 -7.76517578 4.32449219 -6.82421875 3.5078125 C-2.58031088 0 -2.58031088 0 0 0 Z " fill="#1887F7" transform="translate(104,89)"/>
<path d="M0 0 C0.66 0 1.32 0 2 0 C0.44396229 3.81936528 -1.95604931 6.26044438 -5 9 C-5.66 9 -6.32 9 -7 9 C-7.33 9.66 -7.66 10.32 -8 11 C-8 8 -8 8 -6.125 5.8125 C-4 4 -4 4 -2 4 C-1.34 2.68 -0.68 1.36 0 0 Z " fill="#787676" transform="translate(818,102)"/>
<path d="M0 0 C-1.49097658 3.7952131 -3.75700849 5.61042731 -7 8 C-4.18918919 0 -4.18918919 0 0 0 Z " fill="#1787F7" transform="translate(107,54)"/>
<path d="M0 0 C0.33 0.66 0.66 1.32 1 2 C-0.32 3.65 -1.64 5.3 -3 7 C-3.99 6.67 -4.98 6.34 -6 6 C-4.02 4.02 -2.04 2.04 0 0 Z " fill="#228CF5" transform="translate(165,151)"/>
</svg>
