<?xml version="1.0" encoding="UTF-8"?>
<svg version="1.1" xmlns="http://www.w3.org/2000/svg" width="33" height="33">
<path d="M0 0 C1.1859375 0.00257812 2.371875 0.00515625 3.59375 0.0078125 C4.7796875 0.00523438 5.965625 0.00265625 7.1875 0 C10.09375 0.1328125 10.09375 0.1328125 11.09375 1.1328125 C11.13455783 3.13239614 11.13629356 5.13326504 11.09375 7.1328125 C8.36832733 8.49552383 6.13287726 8.30204851 3.09375 8.3203125 C2.02125 8.33449219 0.94875 8.34867188 -0.15625 8.36328125 C-2.90625 8.1328125 -2.90625 8.1328125 -4.90625 6.1328125 C-4.18165054 0.19109693 -4.18165054 0.19109693 0 0 Z " fill="#ECB12D" transform="translate(21.90625,16.8671875)"/>
<path d="M0 0 C4.55555556 0.55555556 4.55555556 0.55555556 6 2 C6.0989294 4.16480797 6.129711 6.33293785 6.125 8.5 C6.12757812 9.6859375 6.13015625 10.871875 6.1328125 12.09375 C6 15 6 15 5 16 C3.00041636 16.04080783 0.99954746 16.04254356 -1 16 C-2.36271133 13.27457733 -2.16923601 11.03912726 -2.1875 8 C-2.20167969 6.9275 -2.21585937 5.855 -2.23046875 4.75 C-2 2 -2 2 0 0 Z " fill="#DF1E5A" transform="translate(10,17)"/>
<path d="M0 0 C1.0725 -0.01417969 2.145 -0.02835937 3.25 -0.04296875 C6 0.1875 6 0.1875 8 2.1875 C7.44444444 6.74305556 7.44444444 6.74305556 6 8.1875 C3.83519203 8.2864294 1.66706215 8.317211 -0.5 8.3125 C-1.6859375 8.31507812 -2.871875 8.31765625 -4.09375 8.3203125 C-7 8.1875 -7 8.1875 -8 7.1875 C-8.04080783 5.18791636 -8.04254356 3.18704746 -8 1.1875 C-5.27457733 -0.17521133 -3.03912726 0.01826399 0 0 Z " fill="#36C5F0" transform="translate(8,7.8125)"/>
<path d="M0 0 C1.4540625 0.0309375 1.4540625 0.0309375 2.9375 0.0625 C4.30021133 2.78792267 4.10673601 5.02337274 4.125 8.0625 C4.13917969 9.135 4.15335938 10.2075 4.16796875 11.3125 C3.9375 14.0625 3.9375 14.0625 1.9375 16.0625 C-2.61805556 15.50694444 -2.61805556 15.50694444 -4.0625 14.0625 C-4.1614294 11.89769203 -4.192211 9.72956215 -4.1875 7.5625 C-4.19007812 6.3765625 -4.19265625 5.190625 -4.1953125 3.96875 C-4.01769192 0.08199371 -4.01769192 0.08199371 0 0 Z " fill="#2EB67C" transform="translate(21.0625,-0.0625)"/>
<path d="M0 0 C2.31 0 4.62 0 7 0 C8.125 4.75 8.125 4.75 7 7 C5.00045254 7.04254356 2.99958364 7.04080783 1 7 C0 6 0 6 -0.0625 2.9375 C-0.041875 1.968125 -0.02125 0.99875 0 0 Z " fill="#ECB12D" transform="translate(17,26)"/>
<path d="M0 0 C1.4540625 0.0309375 1.4540625 0.0309375 2.9375 0.0625 C2.9375 2.3725 2.9375 4.6825 2.9375 7.0625 C-1.8125 8.1875 -1.8125 8.1875 -4.0625 7.0625 C-4.10504356 5.06295254 -4.10330783 3.06208364 -4.0625 1.0625 C-3.0625 0.0625 -3.0625 0.0625 0 0 Z " fill="#E01D59" transform="translate(4.0625,16.9375)"/>
<path d="M0 0 C0.04254356 1.99954746 0.04080783 4.00041636 0 6 C-1 7 -1 7 -4.0625 7.0625 C-5.031875 7.041875 -6.00125 7.02125 -7 7 C-7 4.69 -7 2.38 -7 0 C-4.3333581 -1.33332095 -2.83319697 -0.67102033 0 0 Z " fill="#2EB57C" transform="translate(33,9)"/>
<path d="M0 0 C1.99954746 -0.04254356 4.00041636 -0.04080783 6 0 C7 1 7 1 7.0625 4.0625 C7.041875 5.031875 7.02125 6.00125 7 7 C4.69 7 2.38 7 0 7 C-1.125 2.25 -1.125 2.25 0 0 Z " fill="#36C4F0" transform="translate(9,0)"/>
</svg>
